<?xml version="1.0" standalone="no"?>
<!DOCTYPE svg PUBLIC "-//W3C//DTD SVG 20010904//EN"
 "http://www.w3.org/TR/2001/REC-SVG-20010904/DTD/svg10.dtd">
<svg version="1.0" xmlns="http://www.w3.org/2000/svg"
 width="400.000000pt" height="400.000000pt" viewBox="0 0 400.000000 400.000000"
 preserveAspectRatio="xMidYMid meet">
<metadata>
Created by potrace 1.11, written by Peter Selinger 2001-2013
</metadata>
<g transform="translate(0.000000,400.000000) scale(0.100000,-0.100000)"
fill="#000000" stroke="none">
<path d="M715 3794 c-38 -7 -106 -31 -150 -53 -140 -70 -236 -166 -306 -306
-71 -145 -69 -95 -69 -1435 0 -1340 -2 -1290 69 -1435 94 -189 267 -323 464
-360 118 -22 2436 -22 2554 0 197 37 370 171 464 360 71 145 69 95 69 1435 0
1340 2 1290 -69 1435 -70 140 -165 236 -306 306 -145 72 -93 69 -1443 68 -982
-1 -1220 -3 -1277 -15z m2607 -286 c91 -45 147 -103 191 -196 l32 -67 0 -1245
0 -1245 -32 -67 c-44 -93 -100 -151 -191 -196 l-76 -37 -1245 0 -1246 0 -67
32 c-93 44 -151 100 -196 191 l-37 76 0 1245 0 1246 31 66 c53 112 129 180
249 221 47 16 133 17 1281 15 l1230 -2 76 -37z"/>
<path d="M1782 3285 c-94 -21 -200 -76 -263 -137 -67 -64 -103 -123 -123 -203
-45 -170 8 -337 137 -434 99 -75 194 -110 502 -185 323 -78 415 -144 415 -295
0 -107 -46 -178 -150 -231 -81 -40 -152 -54 -270 -53 -121 0 -207 20 -293 65
-108 58 -165 135 -191 260 -9 43 -18 62 -27 61 -8 -1 -58 -5 -112 -8 l-99 -7
7 -51 c17 -134 67 -245 151 -336 100 -109 231 -168 418 -192 118 -14 295 -7
381 16 182 50 329 172 390 325 10 27 20 83 23 141 8 159 -36 265 -147 356
-101 83 -218 126 -571 211 -197 48 -279 84 -322 143 -30 40 -39 96 -27 159 15
76 78 138 175 171 60 21 87 24 209 24 123 -1 147 -4 199 -24 108 -43 185 -139
202 -250 l7 -44 111 7 c61 4 113 9 115 12 2 2 -1 36 -8 76 -30 192 -163 338
-365 405 -72 23 -100 26 -246 29 -117 3 -183 -1 -228 -11z"/>
<path d="M1046 1548 c-36 -40 -66 -75 -66 -78 0 -4 28 -29 63 -57 193 -156
403 -258 646 -314 111 -26 384 -37 502 -20 186 26 393 96 551 184 60 34 176
116 253 180 l29 24 -41 49 c-23 27 -55 62 -72 78 l-31 30 -33 -31 c-93 -88
-281 -197 -427 -246 -430 -146 -908 -59 -1247 229 -28 24 -53 44 -56 44 -3 0
-35 -32 -71 -72z"/>
<path d="M735 1229 c-33 -39 -61 -74 -62 -77 -1 -4 29 -32 68 -62 298 -232
627 -373 989 -425 122 -17 379 -20 500 -4 313 38 635 156 884 323 96 65 214
156 215 166 1 7 -120 144 -129 148 -5 2 -59 -36 -122 -83 -330 -251 -805 -390
-1208 -355 -369 32 -714 167 -996 391 -34 27 -66 49 -70 49 -5 0 -36 -32 -69
-71z"/>
</g>
</svg>
